<svg width="482" height="482" viewBox="0 0 482 482" fill="none" xmlns="http://www.w3.org/2000/svg">
<path d="M241.5 179V223.5M241.5 179H168.5M241.5 179H300M241.5 223.5L168.5 387.5H128M241.5 223.5L313 387.5H350.5M93.5 387.5H128M380.5 387.5H350.5M93.5 179H128M380.5 179H334.5M128 179H168.5M128 179V159M168.5 179V133M334.5 179H300M334.5 179V159M300 179V133M350.5 387.5L363.5 367M128 387.5L105 367" stroke="black" stroke-width="22" stroke-linecap="round" stroke-linejoin="round"/>
<path d="M239.794 294L285 398H196L239.794 294Z" fill="black"/>
</svg>
